<mxfile host="Electron" modified="2025-01-03T22:40:58.723Z" agent="Mozilla/5.0 (Windows NT 10.0; Win64; x64) AppleWebKit/537.36 (KHTML, like Gecko) draw.io/24.0.4 Chrome/120.0.6099.109 Electron/28.1.0 Safari/537.36" etag="nZHO7KR0oSv9N5ksLSvM" version="24.0.4" type="device">
  <diagram name="Page-1" id="VQ2v8j5eNFilf5WO8Pp_">
    <mxGraphModel dx="1725" dy="2280" grid="1" gridSize="10" guides="1" tooltips="1" connect="1" arrows="1" fold="1" page="1" pageScale="1" pageWidth="850" pageHeight="1100" math="0" shadow="0">
      <root>
        <mxCell id="0" />
        <mxCell id="1" parent="0" />
        <mxCell id="3hmfXApa579EejUYuhaD-37" value="" style="rounded=0;whiteSpace=wrap;html=1;" parent="1" vertex="1">
          <mxGeometry y="-1100" width="1700" height="1100" as="geometry" />
        </mxCell>
        <mxCell id="idAfAH8FcF6U09bbKFws-16" value="" style="rounded=0;whiteSpace=wrap;html=1;fillColor=#f5f5f5;fontColor=#333333;strokeColor=#666666;" parent="1" vertex="1">
          <mxGeometry x="20" y="-1000" width="1310" height="960" as="geometry" />
        </mxCell>
        <mxCell id="idAfAH8FcF6U09bbKFws-25" value="" style="rounded=0;whiteSpace=wrap;html=1;fillColor=#dae8fc;strokeColor=#6c8ebf;" parent="1" vertex="1">
          <mxGeometry x="50" y="-750" width="1260" height="450" as="geometry" />
        </mxCell>
        <mxCell id="idAfAH8FcF6U09bbKFws-1" value="" style="rounded=0;whiteSpace=wrap;html=1;fillColor=#dae8fc;strokeColor=#6c8ebf;" parent="1" vertex="1">
          <mxGeometry x="50" y="-270" width="1260" height="210" as="geometry" />
        </mxCell>
        <mxCell id="idAfAH8FcF6U09bbKFws-2" value="" style="rounded=0;whiteSpace=wrap;html=1;" parent="1" vertex="1">
          <mxGeometry x="70" y="-440" width="760" height="120" as="geometry" />
        </mxCell>
        <mxCell id="idAfAH8FcF6U09bbKFws-3" value="" style="rounded=0;whiteSpace=wrap;html=1;" parent="1" vertex="1">
          <mxGeometry x="70" y="-570" width="760" height="120" as="geometry" />
        </mxCell>
        <mxCell id="idAfAH8FcF6U09bbKFws-4" value="" style="rounded=0;whiteSpace=wrap;html=1;" parent="1" vertex="1">
          <mxGeometry x="70" y="-700" width="760" height="120" as="geometry" />
        </mxCell>
        <mxCell id="idAfAH8FcF6U09bbKFws-5" value="" style="rounded=0;whiteSpace=wrap;html=1;fillColor=#dae8fc;strokeColor=#6c8ebf;" parent="1" vertex="1">
          <mxGeometry x="50" y="-960" width="1260" height="190" as="geometry" />
        </mxCell>
        <mxCell id="idAfAH8FcF6U09bbKFws-6" value="SystemLayer" style="text;html=1;align=center;verticalAlign=middle;resizable=0;points=[];autosize=1;strokeColor=default;fillColor=default;" parent="1" vertex="1">
          <mxGeometry x="50" y="-270" width="90" height="30" as="geometry" />
        </mxCell>
        <mxCell id="idAfAH8FcF6U09bbKFws-7" value="SourceLayer" style="text;html=1;align=center;verticalAlign=middle;resizable=0;points=[];autosize=1;strokeColor=default;fillColor=none;" parent="1" vertex="1">
          <mxGeometry x="70" y="-440" width="90" height="30" as="geometry" />
        </mxCell>
        <mxCell id="idAfAH8FcF6U09bbKFws-8" value="InterfaceLayer" style="text;html=1;align=center;verticalAlign=middle;resizable=0;points=[];autosize=1;strokeColor=default;fillColor=none;" parent="1" vertex="1">
          <mxGeometry x="70" y="-570" width="100" height="30" as="geometry" />
        </mxCell>
        <mxCell id="idAfAH8FcF6U09bbKFws-9" value="ControllerLayer" style="text;html=1;align=center;verticalAlign=middle;resizable=0;points=[];autosize=1;strokeColor=default;fillColor=none;" parent="1" vertex="1">
          <mxGeometry x="70" y="-700" width="110" height="30" as="geometry" />
        </mxCell>
        <mxCell id="idAfAH8FcF6U09bbKFws-10" value="ApplicationLayer" style="text;html=1;align=center;verticalAlign=middle;resizable=0;points=[];autosize=1;strokeColor=default;fillColor=default;" parent="1" vertex="1">
          <mxGeometry x="50" y="-960" width="110" height="30" as="geometry" />
        </mxCell>
        <mxCell id="idAfAH8FcF6U09bbKFws-11" value="ECUStateManager&lt;br&gt;(root compostion)" style="rounded=1;whiteSpace=wrap;html=1;fillColor=#fff2cc;strokeColor=#d6b656;" parent="1" vertex="1">
          <mxGeometry x="170" y="-260" width="120" height="90" as="geometry" />
        </mxCell>
        <mxCell id="idAfAH8FcF6U09bbKFws-12" value="SystemTimeManager" style="rounded=1;whiteSpace=wrap;html=1;fillColor=#f5f5f5;fontColor=#333333;strokeColor=#666666;" parent="1" vertex="1">
          <mxGeometry x="315" y="-260" width="120" height="90" as="geometry" />
        </mxCell>
        <mxCell id="idAfAH8FcF6U09bbKFws-13" value="AnalogControllerManager" style="rounded=1;whiteSpace=wrap;html=1;fillColor=#f5f5f5;fontColor=#333333;strokeColor=#666666;" parent="1" vertex="1">
          <mxGeometry x="460" y="-260" width="150" height="90" as="geometry" />
        </mxCell>
        <mxCell id="idAfAH8FcF6U09bbKFws-17" value="MemoryManager" style="rounded=1;whiteSpace=wrap;html=1;fillColor=#f5f5f5;fontColor=#333333;strokeColor=#666666;" parent="1" vertex="1">
          <mxGeometry x="630" y="-260" width="150" height="90" as="geometry" />
        </mxCell>
        <mxCell id="idAfAH8FcF6U09bbKFws-18" value="CommunicationManager" style="rounded=1;whiteSpace=wrap;html=1;fillColor=#f5f5f5;fontColor=#333333;strokeColor=#666666;" parent="1" vertex="1">
          <mxGeometry x="800" y="-260" width="150" height="90" as="geometry" />
        </mxCell>
        <mxCell id="idAfAH8FcF6U09bbKFws-20" value="PowerManager" style="rounded=1;whiteSpace=wrap;html=1;fillColor=#f5f5f5;fontColor=#333333;strokeColor=#666666;" parent="1" vertex="1">
          <mxGeometry x="970" y="-260" width="150" height="90" as="geometry" />
        </mxCell>
        <mxCell id="idAfAH8FcF6U09bbKFws-23" value="DataBackupManager" style="rounded=1;whiteSpace=wrap;html=1;fillColor=#f5f5f5;fontColor=#333333;strokeColor=#666666;" parent="1" vertex="1">
          <mxGeometry x="90" y="-400" width="150" height="70" as="geometry" />
        </mxCell>
        <mxCell id="idAfAH8FcF6U09bbKFws-24" value="DataStabilityHandler" style="rounded=1;whiteSpace=wrap;html=1;fillColor=#f5f5f5;fontColor=#333333;strokeColor=#666666;" parent="1" vertex="1">
          <mxGeometry x="250" y="-400" width="150" height="70" as="geometry" />
        </mxCell>
        <mxCell id="idAfAH8FcF6U09bbKFws-31" value="" style="rounded=0;whiteSpace=wrap;html=1;fillColor=#f5f5f5;fontColor=#333333;strokeColor=#666666;" parent="1" vertex="1">
          <mxGeometry x="80" y="-150" width="1200" height="80" as="geometry" />
        </mxCell>
        <mxCell id="idAfAH8FcF6U09bbKFws-28" value="SoftwareLayer" style="text;html=1;align=center;verticalAlign=middle;resizable=0;points=[];autosize=1;strokeColor=default;fillColor=default;" parent="1" vertex="1">
          <mxGeometry x="50" y="-750" width="100" height="30" as="geometry" />
        </mxCell>
        <mxCell id="idAfAH8FcF6U09bbKFws-33" value="Basic Software" style="text;html=1;align=center;verticalAlign=middle;resizable=0;points=[];autosize=1;strokeColor=default;fillColor=none;" parent="1" vertex="1">
          <mxGeometry x="80" y="-150" width="100" height="30" as="geometry" />
        </mxCell>
        <mxCell id="idAfAH8FcF6U09bbKFws-34" value="GPIO" style="rounded=1;whiteSpace=wrap;html=1;fillColor=#b1ddf0;strokeColor=#10739e;" parent="1" vertex="1">
          <mxGeometry x="460" y="-135" width="70" height="50" as="geometry" />
        </mxCell>
        <mxCell id="idAfAH8FcF6U09bbKFws-35" value="ADC" style="rounded=1;whiteSpace=wrap;html=1;fillColor=#b1ddf0;strokeColor=#10739e;" parent="1" vertex="1">
          <mxGeometry x="540" y="-135" width="70" height="50" as="geometry" />
        </mxCell>
        <mxCell id="idAfAH8FcF6U09bbKFws-36" value="CAN" style="rounded=1;whiteSpace=wrap;html=1;fillColor=#b1ddf0;strokeColor=#10739e;" parent="1" vertex="1">
          <mxGeometry x="840" y="-135" width="70" height="50" as="geometry" />
        </mxCell>
        <mxCell id="idAfAH8FcF6U09bbKFws-37" value="TIM" style="rounded=1;whiteSpace=wrap;html=1;fillColor=#b1ddf0;strokeColor=#10739e;" parent="1" vertex="1">
          <mxGeometry x="340" y="-135" width="70" height="50" as="geometry" />
        </mxCell>
        <mxCell id="idAfAH8FcF6U09bbKFws-38" value="FLASH" style="rounded=1;whiteSpace=wrap;html=1;fillColor=#b1ddf0;strokeColor=#10739e;" parent="1" vertex="1">
          <mxGeometry x="670" y="-135" width="70" height="50" as="geometry" />
        </mxCell>
        <mxCell id="idAfAH8FcF6U09bbKFws-39" value="PWR" style="rounded=1;whiteSpace=wrap;html=1;fillColor=#b1ddf0;strokeColor=#10739e;" parent="1" vertex="1">
          <mxGeometry x="1010" y="-135" width="70" height="50" as="geometry" />
        </mxCell>
        <mxCell id="YMip6UsJvOuBTo4OkoSk-4" style="edgeStyle=orthogonalEdgeStyle;rounded=0;orthogonalLoop=1;jettySize=auto;html=1;" edge="1" parent="1" source="idAfAH8FcF6U09bbKFws-40" target="idAfAH8FcF6U09bbKFws-54">
          <mxGeometry relative="1" as="geometry">
            <Array as="points">
              <mxPoint x="360" y="-515" />
              <mxPoint x="360" y="-720" />
              <mxPoint x="800" y="-720" />
            </Array>
          </mxGeometry>
        </mxCell>
        <mxCell id="idAfAH8FcF6U09bbKFws-40" value="IDataController" style="rounded=1;whiteSpace=wrap;html=1;fillColor=#f5f5f5;fontColor=#333333;strokeColor=#666666;" parent="1" vertex="1">
          <mxGeometry x="205" y="-560" width="140" height="90" as="geometry" />
        </mxCell>
        <mxCell id="idAfAH8FcF6U09bbKFws-73" style="edgeStyle=orthogonalEdgeStyle;rounded=0;orthogonalLoop=1;jettySize=auto;html=1;startArrow=classic;startFill=1;" parent="1" source="idAfAH8FcF6U09bbKFws-41" target="idAfAH8FcF6U09bbKFws-40" edge="1">
          <mxGeometry relative="1" as="geometry" />
        </mxCell>
        <mxCell id="idAfAH8FcF6U09bbKFws-41" value="DataControllerManager" style="rounded=1;whiteSpace=wrap;html=1;fillColor=#f5f5f5;fontColor=#333333;strokeColor=#666666;" parent="1" vertex="1">
          <mxGeometry x="200" y="-685" width="150" height="90" as="geometry" />
        </mxCell>
        <mxCell id="idAfAH8FcF6U09bbKFws-42" value="ISignalWrapper" style="rounded=1;whiteSpace=wrap;html=1;fillColor=#f5f5f5;fontColor=#333333;strokeColor=#666666;" parent="1" vertex="1">
          <mxGeometry x="390" y="-560" width="150" height="90" as="geometry" />
        </mxCell>
        <mxCell id="YMip6UsJvOuBTo4OkoSk-1" style="edgeStyle=orthogonalEdgeStyle;rounded=0;orthogonalLoop=1;jettySize=auto;html=1;entryX=0.5;entryY=0;entryDx=0;entryDy=0;startArrow=classic;startFill=1;" edge="1" parent="1" source="idAfAH8FcF6U09bbKFws-43" target="idAfAH8FcF6U09bbKFws-42">
          <mxGeometry relative="1" as="geometry" />
        </mxCell>
        <mxCell id="idAfAH8FcF6U09bbKFws-43" value="ExternalSignalWrapper" style="rounded=1;whiteSpace=wrap;html=1;fillColor=#f5f5f5;fontColor=#333333;strokeColor=#666666;" parent="1" vertex="1">
          <mxGeometry x="390" y="-685" width="150" height="90" as="geometry" />
        </mxCell>
        <mxCell id="idAfAH8FcF6U09bbKFws-44" value="ExternalDataBackupManager" style="rounded=1;whiteSpace=wrap;html=1;fillColor=#f5f5f5;fontColor=#333333;strokeColor=#666666;" parent="1" vertex="1">
          <mxGeometry x="410" y="-400" width="170" height="70" as="geometry" />
        </mxCell>
        <mxCell id="idAfAH8FcF6U09bbKFws-46" value="ExternalDataHandler" style="rounded=1;whiteSpace=wrap;html=1;fillColor=#f5f5f5;fontColor=#333333;strokeColor=#666666;" parent="1" vertex="1">
          <mxGeometry x="590" y="-400" width="130" height="70" as="geometry" />
        </mxCell>
        <mxCell id="idAfAH8FcF6U09bbKFws-48" value="Software Architecture" style="text;html=1;align=center;verticalAlign=middle;resizable=0;points=[];autosize=1;strokeColor=default;fillColor=default;" parent="1" vertex="1">
          <mxGeometry x="20" y="-1000" width="140" height="30" as="geometry" />
        </mxCell>
        <mxCell id="idAfAH8FcF6U09bbKFws-49" value="" style="rounded=0;whiteSpace=wrap;html=1;" parent="1" vertex="1">
          <mxGeometry x="710" y="-920" width="530" height="130" as="geometry" />
        </mxCell>
        <mxCell id="idAfAH8FcF6U09bbKFws-50" value="SpeedTorqueControllerComposition" style="text;html=1;align=center;verticalAlign=middle;resizable=0;points=[];autosize=1;strokeColor=default;fillColor=none;" parent="1" vertex="1">
          <mxGeometry x="710" y="-920" width="210" height="30" as="geometry" />
        </mxCell>
        <mxCell id="idAfAH8FcF6U09bbKFws-51" value="&lt;b&gt;&lt;font style=&quot;font-size: 18px;&quot;&gt;. . .&lt;/font&gt;&lt;/b&gt;" style="text;html=1;align=center;verticalAlign=middle;resizable=0;points=[];autosize=1;strokeColor=none;fillColor=none;" parent="1" vertex="1">
          <mxGeometry x="1250" y="-885" width="50" height="40" as="geometry" />
        </mxCell>
        <mxCell id="idAfAH8FcF6U09bbKFws-52" value="&lt;b&gt;&lt;font style=&quot;font-size: 18px;&quot;&gt;. . .&lt;/font&gt;&lt;/b&gt;" style="text;html=1;align=center;verticalAlign=middle;resizable=0;points=[];autosize=1;strokeColor=none;fillColor=none;" parent="1" vertex="1">
          <mxGeometry x="770" y="-660" width="50" height="40" as="geometry" />
        </mxCell>
        <mxCell id="idAfAH8FcF6U09bbKFws-53" value="&lt;b&gt;&lt;font style=&quot;font-size: 18px;&quot;&gt;. . .&lt;/font&gt;&lt;/b&gt;" style="text;html=1;align=center;verticalAlign=middle;resizable=0;points=[];autosize=1;strokeColor=none;fillColor=none;" parent="1" vertex="1">
          <mxGeometry x="770" y="-530" width="50" height="40" as="geometry" />
        </mxCell>
        <mxCell id="idAfAH8FcF6U09bbKFws-54" value="SpeedControlManager" style="rounded=1;whiteSpace=wrap;html=1;fillColor=#f5f5f5;fontColor=#333333;strokeColor=#666666;" parent="1" vertex="1">
          <mxGeometry x="725" y="-870" width="150" height="60" as="geometry" />
        </mxCell>
        <mxCell id="idAfAH8FcF6U09bbKFws-55" value="SpeedControlDcmProxy" style="rounded=1;whiteSpace=wrap;html=1;fillColor=#f5f5f5;fontColor=#333333;strokeColor=#666666;" parent="1" vertex="1">
          <mxGeometry x="1065" y="-870" width="150" height="60" as="geometry" />
        </mxCell>
        <mxCell id="idAfAH8FcF6U09bbKFws-56" value="&lt;div&gt;Abstract_SpeedControl&lt;/div&gt;" style="rounded=1;whiteSpace=wrap;html=1;fillColor=#f5f5f5;fontColor=#333333;strokeColor=#666666;" parent="1" vertex="1">
          <mxGeometry x="895" y="-870" width="150" height="60" as="geometry" />
        </mxCell>
        <mxCell id="idAfAH8FcF6U09bbKFws-58" style="edgeStyle=orthogonalEdgeStyle;rounded=0;orthogonalLoop=1;jettySize=auto;html=1;" parent="1" source="idAfAH8FcF6U09bbKFws-12" target="idAfAH8FcF6U09bbKFws-37" edge="1">
          <mxGeometry relative="1" as="geometry" />
        </mxCell>
        <mxCell id="idAfAH8FcF6U09bbKFws-62" style="edgeStyle=orthogonalEdgeStyle;rounded=0;orthogonalLoop=1;jettySize=auto;html=1;" parent="1" source="idAfAH8FcF6U09bbKFws-13" target="idAfAH8FcF6U09bbKFws-35" edge="1">
          <mxGeometry relative="1" as="geometry">
            <Array as="points">
              <mxPoint x="575" y="-160" />
              <mxPoint x="575" y="-160" />
            </Array>
          </mxGeometry>
        </mxCell>
        <mxCell id="idAfAH8FcF6U09bbKFws-63" style="edgeStyle=orthogonalEdgeStyle;rounded=0;orthogonalLoop=1;jettySize=auto;html=1;" parent="1" source="idAfAH8FcF6U09bbKFws-13" target="idAfAH8FcF6U09bbKFws-34" edge="1">
          <mxGeometry relative="1" as="geometry">
            <Array as="points">
              <mxPoint x="495" y="-150" />
              <mxPoint x="495" y="-150" />
            </Array>
          </mxGeometry>
        </mxCell>
        <mxCell id="idAfAH8FcF6U09bbKFws-64" style="edgeStyle=orthogonalEdgeStyle;rounded=0;orthogonalLoop=1;jettySize=auto;html=1;" parent="1" source="idAfAH8FcF6U09bbKFws-17" target="idAfAH8FcF6U09bbKFws-38" edge="1">
          <mxGeometry relative="1" as="geometry" />
        </mxCell>
        <mxCell id="idAfAH8FcF6U09bbKFws-65" style="edgeStyle=orthogonalEdgeStyle;rounded=0;orthogonalLoop=1;jettySize=auto;html=1;" parent="1" source="idAfAH8FcF6U09bbKFws-18" target="idAfAH8FcF6U09bbKFws-36" edge="1">
          <mxGeometry relative="1" as="geometry" />
        </mxCell>
        <mxCell id="idAfAH8FcF6U09bbKFws-66" style="edgeStyle=orthogonalEdgeStyle;rounded=0;orthogonalLoop=1;jettySize=auto;html=1;" parent="1" source="idAfAH8FcF6U09bbKFws-20" target="idAfAH8FcF6U09bbKFws-39" edge="1">
          <mxGeometry relative="1" as="geometry" />
        </mxCell>
        <mxCell id="idAfAH8FcF6U09bbKFws-71" style="edgeStyle=orthogonalEdgeStyle;rounded=0;orthogonalLoop=1;jettySize=auto;html=1;entryX=0.5;entryY=0;entryDx=0;entryDy=0;strokeWidth=2;startArrow=classic;startFill=1;" parent="1" source="idAfAH8FcF6U09bbKFws-25" target="idAfAH8FcF6U09bbKFws-11" edge="1">
          <mxGeometry relative="1" as="geometry">
            <Array as="points">
              <mxPoint x="605" y="-280" />
              <mxPoint x="230" y="-280" />
            </Array>
          </mxGeometry>
        </mxCell>
        <mxCell id="3hmfXApa579EejUYuhaD-1" value="&lt;strong&gt;Application Layer:&lt;/strong&gt; İş mantığı ve kullanıcı etkileşimlerini yöneten üst düzey bileşenler.&amp;nbsp;istemin işlevlerini bir araya getirerek, kullanıcı taleplerini yerine getiren ve genel kontrolü sağlayan merkezi bir yapı oluşturur." style="whiteSpace=wrap;html=1;shape=mxgraph.basic.document" parent="1" vertex="1">
          <mxGeometry x="1360" y="-250" width="150" height="210" as="geometry" />
        </mxCell>
        <mxCell id="3hmfXApa579EejUYuhaD-4" value="&lt;div&gt;&lt;br&gt;&lt;/div&gt;&lt;b&gt;&lt;div&gt;&lt;b style=&quot;background-color: initial;&quot;&gt;Software Layer:&lt;/b&gt;&lt;span style=&quot;background-color: initial; font-weight: normal;&quot;&gt;&amp;nbsp;&lt;/span&gt;&lt;/div&gt;&lt;div&gt;&lt;span style=&quot;background-color: initial; font-weight: normal;&quot;&gt;yazılım mimarisinde, uygulama ve donanım katmanları arasında yer alarak sistemin iş mantığı, veri adaptasyonu ve kaynak yönetimi süreçlerini düzenleyen katmandır. Bu katman, sistemin farklı bileşenleri arasında iletişim kurulmasını sağlar ve kontrol mekanizmalarını işler hale getirir.&lt;/span&gt;&lt;br&gt;&lt;/div&gt;&lt;/b&gt;&lt;div&gt;&lt;strong style=&quot;background-color: initial;&quot;&gt;Controller Layer:&lt;/strong&gt;&lt;span style=&quot;background-color: initial;&quot;&gt; İş mantığını yönetir, veri akışını kontrol eder ve sistemin genel işleyişini yönlendiren karar mekanizmalarını çalıştırır.&lt;/span&gt;&lt;/div&gt;&lt;div&gt;&lt;strong style=&quot;background-color: initial;&quot;&gt;&lt;br&gt;&lt;/strong&gt;&lt;/div&gt;&lt;div&gt;&lt;strong style=&quot;background-color: initial;&quot;&gt;Interface Layer:&lt;/strong&gt;&lt;span style=&quot;background-color: initial;&quot;&gt; Katmanlar arasında veri dönüşümü ve protokol adaptasyonu sağlar. Farklı modüllerin birlikte çalışmasını temin eder.&lt;/span&gt;&lt;/div&gt;&lt;div&gt;&lt;strong style=&quot;background-color: initial;&quot;&gt;&lt;br&gt;&lt;/strong&gt;&lt;/div&gt;&lt;div&gt;&lt;strong style=&quot;background-color: initial;&quot;&gt;Source Layer:&lt;/strong&gt;&lt;span style=&quot;background-color: initial;&quot;&gt; Verilerin yedeklenmesi, saklanması, hata tespiti ve kararlılık kontrollerini gerçekleştirir.&lt;/span&gt;&lt;/div&gt;" style="whiteSpace=wrap;html=1;shape=mxgraph.basic.document" parent="1" vertex="1">
          <mxGeometry x="1360" y="-540" width="330" height="280" as="geometry" />
        </mxCell>
        <mxCell id="3hmfXApa579EejUYuhaD-5" value="&lt;strong&gt;System Layer:&lt;/strong&gt; Sistem zamanlaması, analog/dijital giriş-çıkışlar ve bellek yönetimi gibi donanıma yakın işlemleri içerir.&lt;div&gt;&lt;br&gt;&lt;/div&gt;&lt;div&gt;&lt;strong&gt;Basic Software:&lt;/strong&gt; Zamanlayıcılar, GPIO, ADC gibi temel donanım sürücüleri.&lt;br&gt;&lt;/div&gt;" style="whiteSpace=wrap;html=1;shape=mxgraph.basic.document" parent="1" vertex="1">
          <mxGeometry x="1530" y="-250" width="150" height="210" as="geometry" />
        </mxCell>
        <mxCell id="3hmfXApa579EejUYuhaD-19" value="" style="rounded=0;whiteSpace=wrap;html=1;" parent="1" vertex="1">
          <mxGeometry x="70" y="-920" width="610" height="130" as="geometry" />
        </mxCell>
        <mxCell id="3hmfXApa579EejUYuhaD-20" value="&lt;span style=&quot;text-wrap: nowrap;&quot;&gt;&amp;lt;FeatureName&amp;gt;_&lt;/span&gt;Manager" style="rounded=1;whiteSpace=wrap;html=1;fillColor=#f5f5f5;fontColor=#333333;strokeColor=#666666;" parent="1" vertex="1">
          <mxGeometry x="85" y="-870" width="210" height="60" as="geometry" />
        </mxCell>
        <mxCell id="3hmfXApa579EejUYuhaD-21" value="&lt;span style=&quot;text-wrap: nowrap;&quot;&gt;&amp;lt;FeatureName&amp;gt;_DcmProxy&lt;/span&gt;" style="rounded=1;whiteSpace=wrap;html=1;fillColor=#f5f5f5;fontColor=#333333;strokeColor=#666666;" parent="1" vertex="1">
          <mxGeometry x="500" y="-870" width="160" height="60" as="geometry" />
        </mxCell>
        <mxCell id="3hmfXApa579EejUYuhaD-22" value="&lt;div&gt;Abstract_&lt;span style=&quot;text-wrap: nowrap; background-color: initial;&quot;&gt;&amp;lt;FeatureName&amp;gt;&lt;/span&gt;&lt;/div&gt;" style="rounded=1;whiteSpace=wrap;html=1;fillColor=#f5f5f5;fontColor=#333333;strokeColor=#666666;" parent="1" vertex="1">
          <mxGeometry x="315" y="-870" width="165" height="60" as="geometry" />
        </mxCell>
        <mxCell id="3hmfXApa579EejUYuhaD-23" value="&amp;lt;FeatureName&amp;gt;_Composition" style="text;html=1;align=center;verticalAlign=middle;resizable=0;points=[];autosize=1;strokeColor=default;fillColor=none;" parent="1" vertex="1">
          <mxGeometry x="70" y="-920" width="180" height="30" as="geometry" />
        </mxCell>
        <mxCell id="3hmfXApa579EejUYuhaD-25" value="&lt;b&gt;&lt;font style=&quot;font-size: 18px;&quot;&gt;. . .&lt;/font&gt;&lt;/b&gt;" style="text;html=1;align=center;verticalAlign=middle;resizable=0;points=[];autosize=1;strokeColor=none;fillColor=none;" parent="1" vertex="1">
          <mxGeometry x="770" y="-390" width="50" height="40" as="geometry" />
        </mxCell>
        <mxCell id="3hmfXApa579EejUYuhaD-26" value="&lt;b&gt;&lt;font style=&quot;font-size: 18px;&quot;&gt;. . .&lt;/font&gt;&lt;/b&gt;" style="text;html=1;align=center;verticalAlign=middle;resizable=0;points=[];autosize=1;strokeColor=none;fillColor=none;" parent="1" vertex="1">
          <mxGeometry x="1200" y="-240" width="50" height="40" as="geometry" />
        </mxCell>
        <mxCell id="3hmfXApa579EejUYuhaD-27" value="&lt;b&gt;&lt;font style=&quot;font-size: 18px;&quot;&gt;. . .&lt;/font&gt;&lt;/b&gt;" style="text;html=1;align=center;verticalAlign=middle;resizable=0;points=[];autosize=1;strokeColor=none;fillColor=none;" parent="1" vertex="1">
          <mxGeometry x="1200" y="-135" width="50" height="40" as="geometry" />
        </mxCell>
        <mxCell id="3hmfXApa579EejUYuhaD-29" style="edgeStyle=orthogonalEdgeStyle;rounded=0;orthogonalLoop=1;jettySize=auto;html=1;entryX=0.5;entryY=0;entryDx=0;entryDy=0;startArrow=classic;startFill=1;endArrow=none;endFill=0;fillColor=#ffe6cc;strokeColor=#d79b00;strokeWidth=2;" parent="1" source="idAfAH8FcF6U09bbKFws-11" target="3hmfXApa579EejUYuhaD-30" edge="1">
          <mxGeometry relative="1" as="geometry" />
        </mxCell>
        <mxCell id="3hmfXApa579EejUYuhaD-30" value="main&lt;span style=&quot;background-color: initial;&quot;&gt;()&lt;/span&gt;" style="rounded=0;whiteSpace=wrap;html=1;fillColor=#fff2cc;strokeColor=#d6b656;" parent="1" vertex="1">
          <mxGeometry x="187.5" y="-127.5" width="85" height="35" as="geometry" />
        </mxCell>
        <mxCell id="3hmfXApa579EejUYuhaD-31" value="&lt;div&gt;&lt;strong style=&quot;background-color: initial;&quot;&gt;Composition&lt;/strong&gt;&lt;span style=&quot;background-color: initial;&quot;&gt;,&amp;nbsp;&lt;/span&gt;&lt;br&gt;&lt;/div&gt;&lt;div&gt;farklı işlevsel modülleri bir araya getirerek&amp;nbsp;&lt;/div&gt;&lt;div&gt;bir&amp;nbsp;&lt;span style=&quot;background-color: initial;&quot;&gt;sistemin belirli bir işlevselliğini&amp;nbsp;&lt;/span&gt;&lt;/div&gt;&lt;div&gt;&lt;span style=&quot;background-color: initial;&quot;&gt;temsil eden bir bileşen oluşturma yöntemidir.&amp;nbsp;&lt;/span&gt;&lt;/div&gt;&lt;div&gt;&lt;div&gt;&lt;br&gt;&lt;div&gt;Örneğin, bir &quot;&lt;b&gt;SpeedTorqueControllerComposition&lt;/b&gt;&quot; şu mantıkla oluşturulabilir.&lt;br&gt;&lt;/div&gt;&lt;/div&gt;&lt;div&gt;&lt;br&gt;&lt;/div&gt;&lt;div&gt;&lt;div&gt;&lt;b&gt;Modülerlik Sağlama:&lt;/b&gt;&lt;/div&gt;&lt;div&gt;Tek bir modülün birden fazla görevi üstlenmesi yerine, görevler alt bileşenlere dağıtılır.&lt;/div&gt;&lt;div&gt;Örneğin, SpeedControlManager sadece hız kontrolünü, UserInterfaceHandler kullanıcı arayüzü ile etkileşimi yönetir.&lt;/div&gt;&lt;div&gt;&lt;br&gt;&lt;/div&gt;&lt;div&gt;&lt;b&gt;Tek Sorumluluk Prensibi (SRP):&lt;/b&gt;&lt;/div&gt;&lt;div&gt;Her bir bileşen tek bir sorumluluğa sahiptir. Bu, kodun anlaşılabilirliğini ve yeniden kullanılabilirliğini artırır.&lt;/div&gt;&lt;div&gt;SpeedControlManager, hız hesaplamalarını yapar, ama doğrudan donanımla etkileşim kurmaz. Bu işi alt katmanlardaki modüller (ör. System Layer) yapar.&lt;/div&gt;&lt;div&gt;&lt;br&gt;&lt;/div&gt;&lt;div&gt;&lt;b&gt;Kolay Genişletilebilirlik:&lt;/b&gt;&lt;/div&gt;&lt;div&gt;Yeni bir işlevsellik eklenmek istendiğinde, sadece ilgili bileşeni değiştirerek veya yeni bir bileşen ekleyerek sistem genişletilebilir.&lt;/div&gt;&lt;div&gt;Örneğin, hız kontrolüne tork kontrolü eklemek için sadece yeni bir bileşen eklenir: TorqueControlManager.&lt;/div&gt;&lt;div&gt;&lt;br&gt;&lt;/div&gt;&lt;div&gt;&lt;b&gt;Yüksek Seviyeli İş Mantığı:&lt;/b&gt;&lt;/div&gt;&lt;div&gt;Composition, alt bileşenler arasındaki ilişkiyi organize eder. Örneğin:&lt;/div&gt;&lt;div&gt;&lt;br&gt;&lt;/div&gt;&lt;div&gt;SpeedControlManager, hız gereksinimini belirler.&lt;/div&gt;&lt;div&gt;Bu gereksinim, arayüz bileşenleri aracılığıyla alt katmanlara (ör. Software Layer) iletilir.&lt;/div&gt;&lt;/div&gt;&lt;/div&gt;" style="whiteSpace=wrap;html=1;shape=mxgraph.basic.document" parent="1" vertex="1">
          <mxGeometry x="1360" y="-1065" width="330" height="505" as="geometry" />
        </mxCell>
        <mxCell id="3hmfXApa579EejUYuhaD-32" value="" style="rounded=0;whiteSpace=wrap;html=1;fillColor=#f5f5f5;fontColor=#333333;strokeColor=#666666;" parent="1" vertex="1">
          <mxGeometry x="860" y="-700" width="430" height="380" as="geometry" />
        </mxCell>
        <mxCell id="3hmfXApa579EejUYuhaD-33" value="Generic &amp;amp; Platform Services" style="text;html=1;align=center;verticalAlign=middle;resizable=0;points=[];autosize=1;strokeColor=default;fillColor=none;" parent="1" vertex="1">
          <mxGeometry x="860" y="-700" width="170" height="30" as="geometry" />
        </mxCell>
        <mxCell id="3hmfXApa579EejUYuhaD-34" value="Communication Stack" style="shape=parallelogram;html=1;strokeWidth=1;perimeter=parallelogramPerimeter;whiteSpace=wrap;rounded=1;arcSize=12;size=0.23;" parent="1" vertex="1">
          <mxGeometry x="950" y="-640" width="260" height="70" as="geometry" />
        </mxCell>
        <mxCell id="3hmfXApa579EejUYuhaD-35" value="ErrorLoggerDescriptor" style="shape=parallelogram;html=1;strokeWidth=1;perimeter=parallelogramPerimeter;whiteSpace=wrap;rounded=1;arcSize=12;size=0.23;" parent="1" vertex="1">
          <mxGeometry x="950" y="-530" width="260" height="70" as="geometry" />
        </mxCell>
        <mxCell id="3hmfXApa579EejUYuhaD-36" value="ParameterHandling" style="shape=parallelogram;html=1;strokeWidth=1;perimeter=parallelogramPerimeter;whiteSpace=wrap;rounded=1;arcSize=12;size=0.23;" parent="1" vertex="1">
          <mxGeometry x="945" y="-420" width="260" height="70" as="geometry" />
        </mxCell>
        <mxCell id="YMip6UsJvOuBTo4OkoSk-2" style="edgeStyle=orthogonalEdgeStyle;rounded=0;orthogonalLoop=1;jettySize=auto;html=1;entryX=0.397;entryY=-0.008;entryDx=0;entryDy=0;entryPerimeter=0;fillColor=#dae8fc;strokeColor=#6c8ebf;endArrow=none;endFill=0;strokeWidth=2;" edge="1" parent="1" source="3hmfXApa579EejUYuhaD-22" target="idAfAH8FcF6U09bbKFws-3">
          <mxGeometry relative="1" as="geometry">
            <Array as="points">
              <mxPoint x="372" y="-750" />
              <mxPoint x="372" y="-750" />
            </Array>
          </mxGeometry>
        </mxCell>
      </root>
    </mxGraphModel>
  </diagram>
</mxfile>
